<svg width="28" height="28" viewBox="0 0 28 28" fill="none" xmlns="http://www.w3.org/2000/svg">
<path d="M16.3143 10.9071L16.3318 10.8698C16.6526 10.1954 17.0633 9.29361 17.4238 8.38711C17.7808 7.49227 18.1028 6.55311 18.2253 5.82044C18.2836 5.46694 18.3104 5.07844 18.2136 4.75177C18.1583 4.55228 18.0441 4.37416 17.8858 4.24077C17.7107 4.10002 17.492 4.02491 17.2674 4.02844C17.0224 4.02844 16.7891 4.12411 16.6048 4.21744C16.4064 4.31894 16.1929 4.45894 15.9713 4.62227C15.5279 4.95011 15.0064 5.40861 14.4441 5.94644C13.3183 7.02561 11.9883 8.46994 10.7329 9.94811C9.4776 11.4263 8.28526 12.9523 7.43943 14.1971C7.01826 14.8166 6.67176 15.3824 6.4466 15.8468C6.33936 16.0582 6.25338 16.2798 6.18993 16.5083C6.14443 16.6891 6.0966 16.9703 6.21443 17.2374C6.3661 17.5793 6.65543 17.7834 6.9331 17.9048C7.21193 18.0261 7.53393 18.0903 7.85593 18.1229C8.50343 18.1894 9.2781 18.1439 9.9991 18.0623C10.5614 17.9993 11.1109 17.9106 11.5729 17.8266C11.2011 18.5259 10.8605 19.2414 10.5521 19.9709C10.2173 20.7759 9.9221 21.6509 9.87543 22.3509C9.8521 22.6963 9.8801 23.0941 10.0878 23.4243C10.3246 23.8011 10.7166 23.9714 11.1529 23.9714C11.6126 23.9714 12.1131 23.7229 12.5681 23.4324C13.0511 23.1233 13.5924 22.6916 14.1583 22.1864C15.2911 21.1726 16.5698 19.8181 17.7481 18.4298C18.9264 17.0414 20.0184 15.6041 20.7733 14.4199C21.1489 13.8308 21.4534 13.2859 21.6413 12.8309C21.7346 12.6046 21.8081 12.3783 21.8396 12.1659C21.8699 11.9699 21.8793 11.6946 21.7369 11.4426C21.5584 11.1299 21.2703 10.9363 20.9844 10.8161C20.6828 10.698 20.3657 10.6241 20.0429 10.5968C19.3849 10.5291 18.6126 10.5758 17.8963 10.6598C17.3269 10.7263 16.7739 10.8196 16.3143 10.9071V10.9071Z" fill="#FFDB4D" stroke="white"/>
</svg>
