<svg width="60" height="60" viewBox="0 0 60 60" fill="none" xmlns="http://www.w3.org/2000/svg">
<circle cx="30" cy="30" r="30" fill="#FFDB4D"/>
<path fill-rule="evenodd" clip-rule="evenodd" d="M38.3372 40.0042V30C38.3374 29.1155 37.9862 28.2672 37.3607 27.6418C36.7353 27.0163 35.887 26.6651 35.0025 26.6653H18.3289C17.4444 26.6651 16.596 27.0163 15.9706 27.6418C15.3452 28.2672 14.9939 29.1155 14.9941 30V40.0042C14.9939 40.8887 15.3452 41.737 15.9706 42.3625C16.596 42.9879 17.4444 43.3392 18.3289 43.3389H35.0025C36.8442 43.3389 38.3372 41.8459 38.3372 40.0042Z" stroke="#1C1C1C" stroke-width="2" stroke-linecap="round" stroke-linejoin="round"/>
<path d="M14.9941 33.4665H38.3372" stroke="#1C1C1C" stroke-width="2" stroke-linecap="round" stroke-linejoin="round"/>
<path d="M20.3301 26.6653L22.3476 19.1289C22.5765 18.2747 23.1359 17.5468 23.9023 17.1057C24.6687 16.6647 25.5791 16.5467 26.4326 16.7779L42.5393 21.0963C43.3935 21.3252 44.1214 21.8846 44.5625 22.651C45.0035 23.4174 45.1215 24.3279 44.8903 25.1814L42.3059 34.8354C41.846 36.5729 40.0876 37.6294 38.3376 37.2197" stroke="#1C1C1C" stroke-width="2" stroke-linecap="round" stroke-linejoin="round"/>
</svg>
