<svg width="60" height="60" viewBox="0 0 60 60" fill="none" xmlns="http://www.w3.org/2000/svg">
<circle cx="30" cy="30" r="30" fill="#FFDB4D"/>
<path d="M40.0039 36.2527H45.006V41.2548" stroke="#1C1C1C" stroke-width="2" stroke-linecap="round" stroke-linejoin="round"/>
<path d="M37.5587 16.7879C36.0323 15.9046 34.3622 15.2973 32.625 14.9938" stroke="#1C1C1C" stroke-width="2" stroke-linecap="round" stroke-linejoin="round"/>
<path d="M44.2037 24.7096C43.6032 23.0513 42.7172 21.5108 41.5859 20.1577" stroke="#1C1C1C" stroke-width="2" stroke-linecap="round" stroke-linejoin="round"/>
<path d="M27.3751 14.9939C25.6379 15.2974 23.9678 15.9047 22.4414 16.788" stroke="#1C1C1C" stroke-width="2" stroke-linecap="round" stroke-linejoin="round"/>
<path d="M18.4166 20.1626C17.2853 21.5157 16.3994 23.0562 15.7988 24.7145" stroke="#1C1C1C" stroke-width="2" stroke-linecap="round" stroke-linejoin="round"/>
<path d="M14.9941 30C15.0069 37.0439 19.9173 43.1309 26.7991 44.6336C33.6809 46.1362 40.6816 42.6501 43.6294 36.2526" stroke="#1C1C1C" stroke-width="2" stroke-linecap="round" stroke-linejoin="round"/>
<path d="M14.9941 30C14.9941 38.2878 21.7127 45.0063 30.0004 45.0063" stroke="#1C1C1C" stroke-width="2" stroke-linecap="round" stroke-linejoin="round"/>
<path fill-rule="evenodd" clip-rule="evenodd" d="M23.8438 32.4526V27.5522C23.845 26.9268 24.1817 26.3501 24.7258 26.0416L29.1526 23.5539C29.6795 23.2571 30.3231 23.2571 30.85 23.5539L35.2768 26.0416C35.8217 26.3494 36.1586 26.9265 36.1589 27.5522V32.4526C36.1551 33.0748 35.8185 33.6473 35.2768 33.9532L30.8483 36.4409C30.321 36.7361 29.6782 36.7361 29.151 36.4409L24.7241 33.9599C24.1805 33.6528 23.8441 33.077 23.8438 32.4526V32.4526Z" stroke="#1C1C1C" stroke-width="2" stroke-linecap="round" stroke-linejoin="round"/>
<path d="M29.9997 30V36.6694" stroke="#1C1C1C" stroke-width="2" stroke-linecap="round" stroke-linejoin="round"/>
<path d="M24.0801 26.677L30.0009 30L35.9217 26.6753" stroke="#1C1C1C" stroke-width="2" stroke-linecap="round" stroke-linejoin="round"/>
</svg>
