<svg width="20" height="20" viewBox="0 0 20 20" fill="none" xmlns="http://www.w3.org/2000/svg">
<path d="M17.4517 6.92732C17.4433 6.2975 17.3252 5.67395 17.1027 5.08454C16.9097 4.58739 16.615 4.13588 16.2374 3.75887C15.8597 3.38186 15.4075 3.08764 14.9095 2.895C14.3267 2.67659 13.711 2.55849 13.0886 2.54574C12.2873 2.50998 12.0333 2.5 9.99917 2.5C7.96507 2.5 7.70435 2.5 6.90887 2.54574C6.28678 2.55859 5.67138 2.67668 5.08885 2.895C4.59079 3.0875 4.13846 3.38168 3.7608 3.7587C3.38314 4.13573 3.08848 4.58731 2.89566 5.08454C2.67645 5.66593 2.55841 6.28044 2.54665 6.90154C2.51083 7.70235 2.5 7.95598 2.5 9.9867C2.5 12.0174 2.5 12.2769 2.54665 13.0718C2.55914 13.6939 2.67659 14.3076 2.89566 14.8905C3.0888 15.3876 3.38369 15.839 3.76147 16.2159C4.13925 16.5927 4.59162 16.8868 5.08968 17.0792C5.67062 17.3064 6.28613 17.433 6.90971 17.4534C7.71185 17.4892 7.9659 17.5 10 17.5C12.0341 17.5 12.2948 17.5 13.0903 17.4534C13.7126 17.4412 14.3284 17.3234 14.9112 17.105C15.409 16.9121 15.8612 16.6178 16.2388 16.2409C16.6164 15.8639 16.9112 15.4125 17.1043 14.9155C17.3234 14.3334 17.4409 13.7196 17.4534 13.0968C17.4892 12.2968 17.5 12.0432 17.5 10.0116C17.4983 7.98093 17.4983 7.72314 17.4517 6.92732ZM9.99417 13.8269C7.86678 13.8269 6.14338 12.1064 6.14338 9.98254C6.14338 7.85869 7.86678 6.13815 9.99417 6.13815C11.0155 6.13815 11.9949 6.54319 12.7171 7.26415C13.4393 7.98511 13.845 8.96294 13.845 9.98254C13.845 11.0021 13.4393 11.98 12.7171 12.7009C11.9949 13.4219 11.0155 13.8269 9.99417 13.8269ZM13.9982 6.89239C13.5009 6.89239 13.1003 6.49157 13.1003 5.99595C13.1003 5.87829 13.1235 5.76177 13.1686 5.65306C13.2137 5.54435 13.2798 5.44557 13.3632 5.36237C13.4465 5.27916 13.5455 5.21316 13.6543 5.16813C13.7632 5.1231 13.8799 5.09993 13.9978 5.09993C14.1157 5.09993 14.2324 5.1231 14.3413 5.16813C14.4502 5.21316 14.5491 5.27916 14.6324 5.36237C14.7158 5.44557 14.7819 5.54435 14.827 5.65306C14.8721 5.76177 14.8953 5.87829 14.8953 5.99595C14.8953 6.49157 14.4938 6.89239 13.9982 6.89239Z" fill="#1C1C1C"/>
<path d="M9.99417 12.4798C11.3756 12.4798 12.4956 11.3617 12.4956 9.98254C12.4956 8.60336 11.3756 7.48531 9.99417 7.48531C8.61269 7.48531 7.49278 8.60336 7.49278 9.98254C7.49278 11.3617 8.61269 12.4798 9.99417 12.4798Z" fill="#1C1C1C"/>
</svg>
