<svg width="24" height="24" viewBox="0 0 24 24" fill="none" xmlns="http://www.w3.org/2000/svg">
<path d="M12.0004 2.3999C10.1017 2.3999 8.24564 2.96293 6.66692 4.01779C5.08821 5.07265 3.85775 6.57197 3.13115 8.32614C2.40455 10.0803 2.21444 12.0105 2.58486 13.8728C2.95527 15.735 3.86959 17.4455 5.21217 18.7882C6.55475 20.1307 8.26531 21.045 10.1275 21.4155C11.9897 21.7859 13.92 21.5957 15.6742 20.8691C17.4284 20.1425 18.9276 18.9121 19.9826 17.3334C21.0374 15.7547 21.6004 13.8986 21.6004 11.9999C21.5976 9.45467 20.5853 7.01447 18.7856 5.21472C16.9858 3.41496 14.5456 2.40266 12.0004 2.3999ZM20.0004 11.9999C20.0014 13.5677 19.5388 15.1007 18.6708 16.4063L17.7172 15.4519C17.6424 15.3769 17.6004 15.2754 17.6004 15.1695V14.3999C17.6004 13.7634 17.3476 13.1529 16.8975 12.7028C16.4474 12.2528 15.8369 11.9999 15.2004 11.9999H12.8004C12.5882 11.9999 12.3847 11.9156 12.2347 11.7656C12.0847 11.6156 12.0004 11.4121 12.0004 11.1999V10.7999C12.0004 10.6938 12.0425 10.5921 12.1176 10.5171C12.1926 10.442 12.2943 10.3999 12.4004 10.3999C12.9308 10.3999 13.4395 10.1892 13.8146 9.81411C14.1897 9.43904 14.4004 8.93034 14.4004 8.3999V7.5999C14.4004 7.49382 14.4425 7.39207 14.5175 7.31706C14.5925 7.24205 14.6943 7.1999 14.8004 7.1999H15.9036C16.4336 7.19839 16.9415 6.98797 17.3172 6.6143L17.6188 6.31271C18.3734 7.05516 18.9725 7.94041 19.3815 8.91684C19.7903 9.89327 20.0008 10.9413 20.0004 11.9999ZM4.03959 12.7703L6.566 15.2967C6.78832 15.5205 7.05286 15.6978 7.34427 15.8185C7.63569 15.9393 7.94817 16.0009 8.26359 15.9999H10.4004C10.6126 15.9999 10.8161 16.0842 10.9661 16.2342C11.1161 16.3842 11.2004 16.5877 11.2004 16.7999V19.9591C9.36055 19.7713 7.64231 18.9528 6.33713 17.6425C5.03197 16.3323 4.22021 14.6109 4.03959 12.7703ZM12.8004 19.9591V16.7999C12.8004 16.1634 12.5475 15.553 12.0974 15.1029C11.6474 14.6527 11.0369 14.3999 10.4004 14.3999H8.26359C8.15841 14.4 8.05424 14.3793 7.95705 14.3391C7.85986 14.2989 7.77155 14.2399 7.69719 14.1655L4.13079 10.5991C4.35974 9.29766 4.90819 8.07342 5.72693 7.03621C6.54568 5.99899 7.60912 5.18127 8.82183 4.65639C10.0345 4.13151 11.3586 3.91591 12.6752 4.02893C13.9917 4.14194 15.2597 4.58004 16.3652 5.3039L16.186 5.4831C16.1108 5.55737 16.0094 5.59928 15.9036 5.59991H14.8004C14.27 5.59991 13.7613 5.81061 13.3862 6.18569C13.0111 6.56076 12.8004 7.06947 12.8004 7.5999V8.3999C12.8004 8.50599 12.7583 8.60773 12.6832 8.68274C12.6082 8.75775 12.5065 8.7999 12.4004 8.7999C11.87 8.7999 11.3613 9.01062 10.9862 9.38569C10.6111 9.76076 10.4004 10.2695 10.4004 10.7999V11.1999C10.4004 11.8364 10.6532 12.4469 11.1033 12.897C11.5534 13.347 12.1639 13.5999 12.8004 13.5999H15.2004C15.4126 13.5999 15.6161 13.6842 15.7661 13.8342C15.9161 13.9842 16.0004 14.1877 16.0004 14.3999V15.1695C16.0019 15.6994 16.2123 16.2073 16.586 16.5831L17.6556 17.6527C16.3528 18.96 14.6369 19.7752 12.8004 19.9591Z" fill="#111111"/>
</svg>
