<svg width="113" height="40" viewBox="0 0 113 40" fill="none" xmlns="http://www.w3.org/2000/svg">
<path d="M10.1947 22.6004C10.1947 22.2526 10.1006 21.9406 9.91238 21.6643C9.72419 21.3881 9.36871 21.1374 8.84593 20.9124C8.33362 20.6771 7.58084 20.4571 6.58758 20.2526C5.70934 20.0684 4.89904 19.8381 4.15671 19.562C3.41439 19.2857 2.77661 18.9533 2.24338 18.5644C1.71016 18.1654 1.29194 17.7 0.988737 17.168C0.695986 16.6257 0.549612 16.0017 0.549612 15.2957C0.549612 14.6103 0.701214 13.9658 1.00442 13.3622C1.30762 12.7483 1.74674 12.2112 2.32179 11.7508C2.89683 11.2802 3.59735 10.9119 4.42333 10.6459C5.24929 10.3697 6.17982 10.2316 7.21491 10.2316C8.65775 10.2316 9.8967 10.4618 10.9318 10.9221C11.9773 11.3825 12.7772 12.0168 13.3313 12.825C13.8054 13.5077 14.0766 14.2653 14.1451 15.0977C14.1646 15.3337 13.9664 15.526 13.7245 15.526H10.4602C10.2183 15.526 10.0267 15.3327 9.98723 15.0991C9.94075 14.8243 9.84784 14.5676 9.7085 14.329C9.50986 13.9709 9.20142 13.6844 8.7832 13.4696C8.365 13.2445 7.83699 13.132 7.19921 13.132C6.62417 13.132 6.13801 13.224 5.7407 13.4082C5.35385 13.5923 5.0611 13.8328 4.86245 14.1294C4.66379 14.4261 4.56447 14.7536 4.56447 15.1116C4.56447 15.3776 4.61674 15.618 4.7213 15.8328C4.8363 16.0374 5.01928 16.2267 5.27021 16.4007C5.52113 16.5746 5.86094 16.7331 6.28961 16.8764C6.72873 17.0196 7.26717 17.1577 7.90495 17.2907C9.17006 17.5363 10.2731 17.8637 11.2141 18.2728C12.1655 18.6718 12.9078 19.2038 13.4411 19.8688C13.9743 20.5338 14.2409 21.383 14.2409 22.4163C14.2409 23.1528 14.0788 23.8281 13.7547 24.442C13.4306 25.0456 12.9601 25.5724 12.3433 26.0226C11.7264 26.4727 10.9893 26.8257 10.1319 27.0814C9.2746 27.327 8.30749 27.4497 7.23059 27.4497C5.67274 27.4497 4.35537 27.1787 3.27846 26.6364C2.20156 26.084 1.38604 25.3883 0.831906 24.5494C0.365048 23.834 0.0948545 23.0968 0.021324 22.3378C-0.00150475 22.1021 0.196798 21.9098 0.438689 21.9098H3.55089C3.78469 21.9098 3.97365 22.0903 4.01039 22.3163C4.08507 22.7753 4.24885 23.1564 4.50174 23.4598C4.82585 23.8486 5.23361 24.13 5.72502 24.3038C6.22687 24.4676 6.75486 24.5494 7.309 24.5494C7.93633 24.5494 8.46432 24.4676 8.89299 24.3038C9.32166 24.13 9.64578 23.8997 9.86534 23.6133C10.0849 23.3166 10.1947 22.979 10.1947 22.6004Z" fill="#1C1C1C"/>
<path d="M22.5657 12.7429C24.4578 12.7429 26.0783 13.4029 27.4273 14.7229C28.7763 16.0429 29.4508 17.6286 29.4508 19.4801V26.7143C29.4508 26.9511 29.2546 27.1429 29.0128 27.1429H26.2097C25.9678 27.1429 25.7717 26.9511 25.7717 26.7143V19.4801C25.7717 18.6229 25.4564 17.8858 24.8257 17.2686C24.195 16.6515 23.4417 16.3429 22.5657 16.3429C21.6722 16.3429 20.9101 16.6515 20.2794 17.2686C19.6487 17.8858 19.3334 18.6229 19.3334 19.4801V26.7143C19.3334 26.9511 19.1372 27.1429 18.8954 27.1429H16.0923C15.8504 27.1429 15.6543 26.9511 15.6543 26.7143V7.77147C15.6543 7.53477 15.8504 7.3429 16.0923 7.3429H18.8954C19.1372 7.3429 19.3334 7.53477 19.3334 7.77147V12.8101C19.3334 13.1313 19.6827 13.3406 19.9877 13.222C20.8089 12.9026 21.6683 12.7429 22.5657 12.7429Z" fill="#1C1C1C"/>
<path d="M32.6686 14.8515C34.1051 13.4458 35.8396 12.7429 37.8718 12.7429C39.9041 12.7429 41.6385 13.4458 43.0751 14.8515C44.5117 16.2572 45.23 17.9544 45.23 19.9429C45.23 21.9315 44.5117 23.6286 43.0751 25.0344C41.6385 26.4401 39.9041 27.1429 37.8718 27.1429C35.8396 27.1429 34.1051 26.4401 32.6686 25.0344C31.232 23.6286 30.5137 21.9315 30.5137 19.9429C30.5137 17.9544 31.232 16.2572 32.6686 14.8515ZM35.2702 22.4886C35.9885 23.1915 36.8557 23.5429 37.8718 23.5429C38.8879 23.5429 39.7551 23.1915 40.4734 22.4886C41.1917 21.7858 41.5509 20.9372 41.5509 19.9429C41.5509 18.9486 41.1917 18.1001 40.4734 17.3972C39.7551 16.6944 38.8879 16.3429 37.8718 16.3429C36.8557 16.3429 35.9885 16.6944 35.2702 17.3972C34.5519 18.1001 34.1927 18.9486 34.1927 19.9429C34.1927 20.9372 34.5519 21.7858 35.2702 22.4886Z" fill="#1C1C1C"/>
<path d="M65.7845 26.7144C65.7845 26.9511 65.5885 27.1429 65.3466 27.1429H62.5435C62.3015 27.1429 62.1055 26.9511 62.1055 26.7144V13.1715C62.1055 12.9348 62.3015 12.7429 62.5435 12.7429H65.3466C65.5885 12.7429 65.7845 12.9348 65.7845 13.1715V26.7144Z" fill="#1C1C1C"/>
<path fill-rule="evenodd" clip-rule="evenodd" d="M53.6287 12.7428C55.661 12.7428 57.3954 13.4457 58.832 14.8514C60.2685 16.2571 60.9868 17.9542 60.9868 19.9428C60.9868 21.9314 60.2685 23.6285 58.832 25.0342C57.3954 26.44 55.661 27.1428 53.6287 27.1428C52.5713 27.1428 51.5706 26.9318 50.6268 26.51C50.319 26.3725 49.9496 26.5817 49.9496 26.9127V32.1142C49.9496 32.351 49.7536 32.5428 49.5117 32.5428H46.7086C46.4666 32.5428 46.2706 32.351 46.2706 32.1142V20.4285C46.0727 16.744 48.6408 14.421 49.9496 13.7199C51.0884 13.0685 52.3148 12.7428 53.6287 12.7428ZM53.6287 23.5428C52.6126 23.5428 51.7454 23.1914 51.0271 22.4885C50.3088 21.7857 49.9496 20.9371 49.9496 19.9428C49.9496 18.9485 50.3088 18.1 51.0271 17.3971C51.7454 16.6942 52.6126 16.3428 53.6287 16.3428C54.6448 16.3428 55.512 16.6942 56.2303 17.3971C56.9486 18.1 57.3078 18.9485 57.3078 19.9428C57.3078 20.9371 56.9486 21.7857 56.2303 22.4885C55.512 23.1914 54.6448 23.5428 53.6287 23.5428Z" fill="#1C1C1C"/>
<path d="M101.612 0H83.5087C77.2195 0 72.1211 4.98883 72.1211 11.1429V28.8571C72.1211 35.0112 77.2195 40 83.5087 40H101.612C107.901 40 113 35.0112 113 28.8571V11.1429C113 4.98883 107.901 0 101.612 0Z" fill="#1C1C1C"/>
<path d="M95.2897 14.8229C96.7262 13.4172 98.4607 12.7144 100.493 12.7144C102.525 12.7144 104.26 13.4172 105.696 14.8229C107.133 16.2286 107.851 17.9258 107.851 19.9144C107.851 21.9029 107.133 23.6001 105.696 25.0058C104.26 26.4115 102.525 27.1144 100.493 27.1144C98.4607 27.1144 96.7262 26.4115 95.2897 25.0058C93.8531 23.6001 93.1348 21.9029 93.1348 19.9144C93.1348 17.9258 93.8531 16.2286 95.2897 14.8229ZM97.8913 22.4601C98.6096 23.1629 99.4768 23.5144 100.493 23.5144C101.509 23.5144 102.376 23.1629 103.095 22.4601C103.813 21.7572 104.172 20.9086 104.172 19.9144C104.172 18.9201 103.813 18.0715 103.095 17.3686C102.376 16.6658 101.509 16.3144 100.493 16.3144C99.4768 16.3144 98.6096 16.6658 97.8913 17.3686C97.173 18.0715 96.8138 18.9201 96.8138 19.9144C96.8138 20.9086 97.173 21.7572 97.8913 22.4601Z" fill="white"/>
<path fill-rule="evenodd" clip-rule="evenodd" d="M91.6728 27.9629C91.9531 27.1744 92.0932 26.2915 92.0932 25.3144V19.0144C92.0232 16.1915 89.6113 14.2896 88.4142 13.6915C87.2754 13.0401 86.0491 12.7144 84.7351 12.7144C82.7028 12.7144 80.9684 13.4172 79.5318 14.8229C78.0952 16.2286 77.377 17.9258 77.377 19.9144C77.377 21.9029 78.0952 23.6001 79.5318 25.0058C80.9684 26.4115 82.7028 27.1144 84.7351 27.1144C85.6934 27.1144 86.6075 26.9411 87.4772 26.5946C87.8241 26.4565 88.1984 26.7432 88.0229 27.0669C87.9389 27.2219 87.8416 27.3664 87.7309 27.5001C87.4331 27.8772 87.1352 28.1515 86.8374 28.3229C86.5396 28.4944 86.2067 28.6315 85.8388 28.7344C85.4709 28.8372 85.2169 28.8886 85.0767 28.8886C84.9366 28.9058 84.8227 28.9144 84.7351 28.9144C83.967 28.9144 83.2408 28.8205 82.5567 28.6328C82.3217 28.5684 82.0704 28.6882 81.9932 28.9148L81.083 31.5851C81.0045 31.8155 81.1369 32.0639 81.3775 32.1236C81.5271 32.1608 81.6828 32.1968 81.8444 32.2315C82.7379 32.4201 83.7015 32.5144 84.7351 32.5144H85.1556C85.4184 32.4972 85.76 32.4372 86.1804 32.3344C86.6184 32.2486 87.1002 32.1201 87.6258 31.9486C88.1514 31.7944 88.677 31.5372 89.2025 31.1772C89.7281 30.8172 90.2011 30.3886 90.6216 29.8915C91.0596 29.4115 91.41 28.7686 91.6728 27.9629ZM84.7351 23.5144C83.719 23.5144 82.8518 23.1629 82.1335 22.4601C81.4152 21.7572 81.056 20.9086 81.056 19.9144C81.056 18.9201 81.4152 18.0715 82.1335 17.3686C82.8518 16.6658 83.719 16.3144 84.7351 16.3144C85.7512 16.3144 86.6184 16.6658 87.3367 17.3686C88.055 18.0715 88.4142 18.9201 88.4142 19.9144C88.4142 20.9086 88.055 21.7572 87.3367 22.4601C86.6184 23.1629 85.7512 23.5144 84.7351 23.5144Z" fill="white"/>
<path d="M89.2754 12.5L88.7442 12.6322C88.55 12.6805 88.4141 12.8515 88.4141 13.0475V13.6914C89.6112 14.2896 92.0231 16.1914 92.0931 19.0143V12.3971C92.0931 12.1211 91.8303 11.9171 91.5557 11.9798L89.2754 12.5Z" fill="white"/>
<path d="M67.1767 7.28571C67.1767 9.10036 65.6734 10.5714 63.8188 10.5714C61.9642 10.5714 60.4609 9.10036 60.4609 7.28571C60.4609 5.47107 61.9642 4 63.8188 4C65.6734 4 67.1767 5.47107 67.1767 7.28571Z" fill="#FFDB4D"/>
</svg>
