<svg width="20" height="20" viewBox="0 0 20 20" fill="none" xmlns="http://www.w3.org/2000/svg">
<path d="M16.9702 14.6222C16.9306 14.4944 16.6787 14.3061 16.2146 14.0577C16.0888 13.9794 15.9097 13.873 15.6779 13.7381C15.4458 13.6031 15.2352 13.4788 15.0464 13.3651C14.8572 13.2515 14.68 13.1414 14.5144 13.035C14.4879 13.0137 14.4051 12.9517 14.2659 12.8485C14.1265 12.7455 14.009 12.6692 13.9127 12.6194C13.8166 12.5698 13.7221 12.5449 13.6293 12.5449C13.4967 12.5449 13.3311 12.6462 13.1323 12.8485C12.9335 13.051 12.7512 13.271 12.5855 13.5091C12.4199 13.7472 12.2441 13.9672 12.0587 14.1696C11.873 14.3721 11.7204 14.4732 11.6013 14.4732C11.5414 14.4732 11.4668 14.4554 11.3774 14.4201C11.288 14.3846 11.2201 14.3542 11.1734 14.3297C11.1271 14.3047 11.0478 14.2551 10.935 14.1803C10.822 14.1057 10.7592 14.0648 10.7459 14.0577C9.8378 13.5178 9.05894 12.8999 8.40922 12.2041C7.75971 11.5079 7.18289 10.6736 6.6791 9.7005C6.67249 9.68628 6.63428 9.61879 6.56473 9.49811C6.49507 9.37733 6.44865 9.29222 6.42545 9.24237C6.40225 9.1927 6.37408 9.11987 6.34099 9.02401C6.3079 8.92815 6.29129 8.8483 6.29129 8.78431C6.29129 8.65654 6.38578 8.49311 6.57472 8.29423C6.76363 8.09546 6.96919 7.90718 7.19118 7.72975C7.41335 7.55232 7.6187 7.35695 7.80767 7.14397C7.99658 6.93087 8.09103 6.7534 8.09103 6.61139C8.09103 6.51202 8.06784 6.41072 8.02148 6.30777C7.97509 6.2046 7.90383 6.0787 7.80767 5.92948C7.71148 5.78034 7.65349 5.69165 7.63357 5.6631C7.53424 5.48568 7.4316 5.29571 7.32541 5.09329C7.21922 4.8909 7.10331 4.6653 6.9773 4.41676C6.8514 4.16832 6.75203 3.97649 6.67903 3.84157C6.44715 3.34452 6.27151 3.07452 6.15215 3.03205C6.10573 3.01075 6.03607 3 5.94336 3C5.76427 3 5.53065 3.03545 5.2423 3.10657C4.95386 3.17758 4.72688 3.25205 4.56114 3.3303C4.22968 3.47937 3.87837 3.91258 3.5071 4.62978C3.16902 5.29724 3 5.95788 3 6.6112C3 6.80281 3.0116 6.98923 3.03479 7.1705C3.05799 7.35158 3.09943 7.55579 3.15916 7.78311C3.21879 8.01035 3.26689 8.17915 3.30325 8.28908C3.33964 8.39908 3.40759 8.59613 3.50706 8.88031C3.60639 9.16442 3.66612 9.33834 3.68601 9.40225C3.918 10.0983 4.19311 10.7197 4.51126 11.2666C5.03473 12.1756 5.74909 13.1151 6.65392 14.0845C7.55879 15.0539 8.43548 15.8192 9.28404 16.3803C9.79444 16.7211 10.3746 17.0158 11.0242 17.2645C11.0839 17.2857 11.2463 17.3496 11.5113 17.4564C11.7765 17.5629 11.9605 17.6357 12.0632 17.6747C12.1659 17.7138 12.3235 17.7654 12.5354 17.8294C12.7478 17.8934 12.9382 17.9378 13.1073 17.9628C13.2764 17.9874 13.4504 18 13.6293 18C14.2391 18 14.8557 17.8188 15.4788 17.4566C16.1482 17.059 16.5525 16.6826 16.6917 16.3272C16.7649 16.1498 16.8342 15.9066 16.9005 15.5975C16.967 15.2887 17 15.0384 17 14.8466C17.0002 14.7468 16.9902 14.6724 16.9702 14.6222Z" fill="#111111"/>
</svg>
