<svg width="24" height="24" viewBox="0 0 24 24" fill="none" xmlns="http://www.w3.org/2000/svg">
<path fill-rule="evenodd" clip-rule="evenodd" d="M18.8962 6.15401L19.7612 6.34301C20.5532 6.51601 21.0252 7.33301 20.7792 8.106L20.5103 8.95001C20.3473 9.46301 20.4973 10.023 20.8953 10.386L21.5503 10.982C22.1493 11.528 22.1493 12.472 21.5503 13.018L20.8953 13.614C20.4973 13.976 20.3473 14.537 20.5103 15.05L20.7792 15.894C21.0252 16.667 20.5532 17.484 19.7612 17.657L18.8962 17.846C18.3702 17.961 17.9603 18.371 17.8453 18.897L17.6562 19.762C17.4832 20.554 16.6663 21.026 15.8933 20.78L15.0492 20.511C14.5362 20.348 13.9762 20.498 13.6132 20.896L13.0173 21.551C12.4713 22.15 11.5272 22.15 10.9812 21.551L10.3853 20.896C10.0233 20.498 9.46225 20.348 8.94925 20.511L8.10525 20.78C7.33225 21.026 6.51525 20.554 6.34225 19.762L6.15325 18.897C6.03825 18.371 5.62825 17.961 5.10225 17.846L4.23725 17.657C3.44525 17.484 2.97325 16.667 3.21925 15.894L3.48825 15.05C3.65125 14.537 3.50125 13.977 3.10325 13.614L2.44925 13.018C1.85025 12.472 1.85025 11.528 2.44925 10.982L3.10425 10.386C3.50225 10.024 3.65225 9.46301 3.48925 8.95001L3.21925 8.106C2.97325 7.33301 3.44525 6.51601 4.23725 6.34301L5.10225 6.15401C5.62825 6.03901 6.03825 5.62901 6.15325 5.10301L6.34225 4.23801C6.51525 3.44601 7.33225 2.97401 8.10525 3.22001L8.94925 3.48901C9.46225 3.65201 10.0223 3.50201 10.3853 3.10401L10.9812 2.44901C11.5272 1.85001 12.4713 1.85001 13.0173 2.44901L13.6132 3.10401C13.9752 3.50201 14.5362 3.65201 15.0492 3.48901L15.8933 3.22001C16.6663 2.97401 17.4832 3.44601 17.6562 4.23801L17.8453 5.10301C17.9603 5.62901 18.3702 6.03901 18.8962 6.15401Z" stroke="#1C1C1C" stroke-width="1.5" stroke-linecap="round" stroke-linejoin="round"/>
<path d="M9 15L15 9" stroke="#1C1C1C" stroke-width="1.5" stroke-linecap="round" stroke-linejoin="round"/>
<path d="M9.249 9C9.111 9 8.999 9.112 9 9.25C9 9.388 9.112 9.5 9.25 9.5C9.388 9.5 9.5 9.388 9.5 9.25C9.5 9.112 9.388 9 9.249 9" stroke="#1C1C1C" stroke-width="1.5" stroke-linecap="round" stroke-linejoin="round"/>
<path d="M14.749 14.5C14.611 14.5 14.499 14.612 14.5 14.75C14.5 14.888 14.612 15 14.75 15C14.888 15 15 14.888 15 14.75C15 14.612 14.888 14.5 14.749 14.5" stroke="#1C1C1C" stroke-width="1.5" stroke-linecap="round" stroke-linejoin="round"/>
</svg>
